<svg width="22" height="22" viewBox="0 0 22 22" fill="none" xmlns="http://www.w3.org/2000/svg">
<path d="M11 5V7.40003" stroke="#AB8000" stroke-linecap="round" stroke-linejoin="round"/>
<path d="M15.2436 6.75781L13.5465 8.45489" stroke="#AB8000" stroke-linecap="round" stroke-linejoin="round"/>
<path d="M17 11H14.6" stroke="#AB8000" stroke-linecap="round" stroke-linejoin="round"/>
<path d="M15.2436 15.243L13.5465 13.5459" stroke="#AB8000" stroke-linecap="round" stroke-linejoin="round"/>
<path d="M11 17.0006V14.6006" stroke="#AB8000" stroke-linecap="round" stroke-linejoin="round"/>
<path d="M6.75664 15.243L8.45372 13.5459" stroke="#AB8000" stroke-linecap="round" stroke-linejoin="round"/>
<path d="M5 11H7.40002" stroke="#AB8000" stroke-linecap="round" stroke-linejoin="round"/>
<path d="M6.75664 6.75781L8.45372 8.45489" stroke="#AB8000" stroke-linecap="round" stroke-linejoin="round"/>
<path d="M8.7043 5.45703L9.16351 6.56571" stroke="#AB8000" stroke-linecap="round" stroke-linejoin="round"/>
<path d="M5.45586 8.7041L6.56452 9.16335" stroke="#AB8000" stroke-linecap="round" stroke-linejoin="round"/>
<path d="M5.45586 13.2961L6.56452 12.8369" stroke="#AB8000" stroke-linecap="round" stroke-linejoin="round"/>
<path d="M8.7043 16.5432L9.16351 15.4346" stroke="#AB8000" stroke-linecap="round" stroke-linejoin="round"/>
<path d="M13.2956 16.5432L12.8363 15.4346" stroke="#AB8000" stroke-linecap="round" stroke-linejoin="round"/>
<path d="M16.5442 13.2961L15.4355 12.8369" stroke="#AB8000" stroke-linecap="round" stroke-linejoin="round"/>
<path d="M16.5442 8.7041L15.4355 9.16335" stroke="#AB8000" stroke-linecap="round" stroke-linejoin="round"/>
<path d="M13.2956 5.45703L12.8363 6.56571" stroke="#AB8000" stroke-linecap="round" stroke-linejoin="round"/>
<path d="M10.6667 21.3333C16.5577 21.3333 21.3333 16.5577 21.3333 10.6667C21.3333 4.77563 16.5577 0 10.6667 0C4.77563 0 0 4.77563 0 10.6667C0 16.5577 4.77563 21.3333 10.6667 21.3333Z" fill="#8D7326" fill-opacity="0.5"/>
</svg>
