<svg width="60" height="28" viewBox="0 0 60 28" fill="none" xmlns="http://www.w3.org/2000/svg">
<rect width="60" height="28" rx="14" fill="#F3B705"/>
<rect x="2" y="2" width="24" height="24" rx="12" fill="#F3F3F3"/>
<path fill-rule="evenodd" clip-rule="evenodd" d="M11.6001 7V8.97367H13.2001V7H11.6001ZM14.9454 9.6872L16.3597 8.2916L17.4911 9.40809L16.0768 10.8037L14.9454 9.6872ZM9.85411 9.6872L8.43989 8.2916L7.3085 9.40809L8.72272 10.8037L9.85411 9.6872ZM16.0001 13.3158C16.0001 13.3992 15.9973 13.4819 15.9915 13.5639C15.5639 13.4036 15.1001 13.3158 14.6154 13.3158C12.6973 13.3158 11.1045 14.6904 10.7934 16.4959C9.61164 15.9133 8.80005 14.7081 8.80005 13.3158C8.80005 11.3537 10.4119 9.76314 12.4001 9.76314C14.3883 9.76314 16.0001 11.3537 16.0001 13.3158ZM16.8001 13.9808C16.8594 14.0207 16.9174 14.0622 16.9741 14.1053H18.8002V12.5263H16.8001V13.9808ZM6 12.5263H8.00005V14.1053H6.00004L6 12.5263ZM7.30862 17.2235L8.72287 15.8279L9.85426 16.9443L8.44001 18.34L7.30862 17.2235ZM11.5393 17.218C11.5386 17.1926 11.5383 17.1671 11.5383 17.1417C11.5383 15.4647 12.9159 14.1053 14.6153 14.1053C15.7429 14.1053 16.7287 14.7038 17.2645 15.5964C17.6783 15.4185 18.1352 15.3198 18.6153 15.3198C20.4846 15.3198 22 16.8152 22 18.6599C22 20.5046 20.4846 22 18.6153 22H12.1537C10.7942 22 9.69215 20.9124 9.69215 19.5709C9.69215 18.4386 10.4771 17.4873 11.5393 17.218Z" fill="#F3B705"/>
</svg>
