<svg width="62" height="28" viewBox="0 0 62 28" fill="none" xmlns="http://www.w3.org/2000/svg">
<rect width="62" height="28" rx="14" fill="#AB8000"/>
<rect x="36" y="2" width="24" height="24" rx="12" fill="#AB8000"/>
<path d="M39.6345 14.4897C39.6345 9.80107 43.4215 6.00044 48.0934 6.00044C48.485 6.00044 48.5502 6.58874 48.2144 6.79248C47.5001 7.22522 46.8934 7.81541 46.4401 8.51833C45.9868 9.22125 45.6989 10.0185 45.5981 10.8496C45.4973 11.6808 45.5863 12.524 45.8583 13.3156C46.1303 14.1071 46.5783 14.8261 47.1682 15.4182C47.7582 16.0102 48.4746 16.4598 49.2633 16.7328C50.052 17.0058 50.8923 17.0951 51.7204 16.9939C52.5486 16.8927 53.343 16.6038 54.0434 16.1489C54.7438 15.694 55.3319 15.0851 55.7631 14.3683C55.9661 14.0321 56.5523 14.0966 56.5523 14.4897C56.5523 15.4557 56.3916 16.3836 56.0955 17.2487H56.5523C56.7206 17.2487 56.8819 17.3158 57.0009 17.4352C57.1199 17.5546 57.1867 17.7165 57.1867 17.8854C57.1867 18.0542 57.1199 18.2162 57.0009 18.3356C56.8819 18.455 56.7206 18.5221 56.5523 18.5221H39.6345C39.4662 18.5221 39.3049 18.455 39.1859 18.3356C39.0669 18.2162 39.0001 18.0542 39.0001 17.8854C39.0001 17.7165 39.0669 17.5546 39.1859 17.4352C39.3049 17.3158 39.4662 17.2487 39.6345 17.2487H40.0913C39.7881 16.3607 39.6337 15.4284 39.6345 14.4897ZM42.1722 19.7954C42.0039 19.7954 41.8425 19.8625 41.7236 19.9819C41.6046 20.1013 41.5377 20.2633 41.5377 20.4321C41.5377 20.601 41.6046 20.7629 41.7236 20.8823C41.8425 21.0017 42.0039 21.0688 42.1722 21.0688H54.0146C54.1829 21.0688 54.3443 21.0017 54.4632 20.8823C54.5822 20.7629 54.6491 20.601 54.6491 20.4321C54.6491 20.2633 54.5822 20.1013 54.4632 19.9819C54.3443 19.8625 54.1829 19.7954 54.0146 19.7954H42.1722ZM44.7098 22.3422C44.5416 22.3422 44.3802 22.4093 44.2612 22.5287C44.1423 22.6481 44.0754 22.81 44.0754 22.9789C44.0754 23.1478 44.1423 23.3097 44.2612 23.4291C44.3802 23.5485 44.5416 23.6156 44.7098 23.6156H51.477C51.6452 23.6156 51.8066 23.5485 51.9256 23.4291C52.0445 23.3097 52.1114 23.1478 52.1114 22.9789C52.1114 22.81 52.0445 22.6481 51.9256 22.5287C51.8066 22.4093 51.6452 22.3422 51.477 22.3422H44.7098ZM54.7759 6.26106C54.7461 6.18414 54.6937 6.11807 54.6258 6.07149C54.5579 6.02491 54.4775 5.99998 54.3953 5.99998C54.313 5.99998 54.2327 6.02491 54.1648 6.07149C54.0968 6.11807 54.0445 6.18414 54.0146 6.26106L53.6509 7.19063C53.6307 7.24327 53.5998 7.29113 53.5602 7.33117C53.5206 7.37121 53.4731 7.40256 53.4208 7.42323L52.498 7.78997C52.4215 7.82052 52.356 7.87338 52.3098 7.94171C52.2637 8.01004 52.239 8.0907 52.239 8.17326C52.239 8.25581 52.2637 8.33647 52.3098 8.40481C52.356 8.47314 52.4215 8.52599 52.498 8.55655L53.4208 8.92328C53.473 8.94386 53.5205 8.97508 53.5601 9.01497C53.5997 9.05486 53.6306 9.10255 53.6509 9.15504L54.0146 10.0838C54.1517 10.4318 54.6406 10.4318 54.7759 10.0838L55.1397 9.15419C55.1601 9.10162 55.1911 9.05387 55.2309 9.01398C55.2706 8.97409 55.3182 8.94291 55.3706 8.92243L56.2935 8.5557C56.3699 8.52515 56.4354 8.47229 56.4816 8.40396C56.5278 8.33563 56.5524 8.25497 56.5524 8.17241C56.5524 8.08985 56.5278 8.00919 56.4816 7.94086C56.4354 7.87253 56.3699 7.81967 56.2935 7.78912L55.3706 7.42238C55.3181 7.40181 55.2705 7.3705 55.2308 7.33046C55.191 7.29041 55.16 7.2425 55.1397 7.18978L54.7759 6.26106Z" fill="#F3F3F3"/>
<path d="M51.5055 11.2045C51.4756 11.1276 51.4233 11.0615 51.3554 11.0149C51.2875 10.9683 51.2071 10.9434 51.1249 10.9434C51.0426 10.9434 50.9622 10.9683 50.8943 11.0149C50.8264 11.0615 50.7741 11.1276 50.7442 11.2045L50.6114 11.5432C50.5911 11.5957 50.5602 11.6434 50.5205 11.6833C50.4809 11.7232 50.4335 11.7544 50.3813 11.775L50.0446 11.9091C49.9682 11.9396 49.9027 11.9925 49.8565 12.0608C49.8104 12.1292 49.7857 12.2098 49.7857 12.2924C49.7857 12.3749 49.8104 12.4556 49.8565 12.5239C49.9027 12.5923 49.9682 12.6451 50.0446 12.6757L50.3813 12.8089C50.4871 12.8514 50.5699 12.9346 50.6114 13.0415L50.7442 13.3803C50.8804 13.7283 51.3693 13.7283 51.5055 13.3803L51.6383 13.0407C51.6586 12.9882 51.6896 12.9405 51.7292 12.9006C51.7688 12.8607 51.8162 12.8295 51.8684 12.8089L52.2051 12.6757C52.2815 12.6451 52.347 12.5923 52.3932 12.5239C52.4394 12.4556 52.464 12.3749 52.464 12.2924C52.464 12.2098 52.4394 12.1292 52.3932 12.0608C52.347 11.9925 52.2815 11.9396 52.2051 11.9091L51.8684 11.775C51.8162 11.7544 51.7688 11.7232 51.7292 11.6833C51.6896 11.6434 51.6586 11.5957 51.6383 11.5432L51.5055 11.2045Z" fill="#F3F3F3"/>
</svg>
