<svg width="88" height="84" viewBox="0 0 88 84" fill="none" xmlns="http://www.w3.org/2000/svg">
<path d="M18.5 84C8.8858 84 -0.149185 82.1744 -8.60501 78.5234C-17.0608 74.8723 -24.4163 69.9216 -30.6713 63.6712C-36.9262 57.4209 -41.877 50.0654 -45.5234 41.605C-49.1698 33.1445 -50.9954 24.1095 -51 14.5C-51.0046 4.89045 -49.1791 -4.14455 -45.5234 -12.605C-41.8677 -21.0655 -36.917 -28.4209 -30.6713 -34.6713C-24.4255 -40.9216 -17.0701 -45.8723 -8.60501 -49.5234C-0.139919 -53.1745 8.89507 -55 18.5 -55C28.1049 -55 37.1398 -53.1745 45.6049 -49.5234C54.07 -45.8723 61.4255 -40.9216 67.6712 -34.6713C73.9169 -28.4209 78.8699 -21.0655 82.5303 -12.605C86.1906 -4.14455 88.0138 4.89045 87.9999 14.5C87.986 24.1095 86.1605 33.1445 82.5233 41.605C78.8862 50.0654 73.9355 57.4209 67.6712 63.6712C61.4069 69.9216 54.0515 74.8746 45.6049 78.5303C37.1584 82.186 28.1234 84.0092 18.5 84ZM18.5 70.1C34.0216 70.1 47.1687 64.7137 57.9412 53.9412C68.7137 43.1687 74.0999 30.0216 74.0999 14.5C74.0999 -1.02168 68.7137 -14.1688 57.9412 -24.9413C47.1687 -35.7138 34.0216 -41.1 18.5 -41.1C2.97831 -41.1 -10.1688 -35.7138 -20.9413 -24.9413C-31.7138 -14.1688 -37.1 -1.02168 -37.1 14.5C-37.1 30.0216 -31.7138 43.1687 -20.9413 53.9412C-10.1688 64.7137 2.97831 70.1 18.5 70.1ZM18.5 56.2C6.91664 56.2 -2.92919 52.1458 -11.0375 44.0375C-19.1458 35.9291 -23.2 26.0833 -23.2 14.5C-23.2 2.91665 -19.1458 -6.92918 -11.0375 -15.0375C-2.92919 -23.1458 6.91664 -27.2 18.5 -27.2C30.0833 -27.2 39.9291 -23.1458 48.0374 -15.0375C56.1458 -6.92918 60.1999 2.91665 60.1999 14.5C60.1999 26.0833 56.1458 35.9291 48.0374 44.0375C39.9291 52.1458 30.0833 56.2 18.5 56.2ZM18.5 42.3C26.145 42.3 32.6895 39.5779 38.1337 34.1337C43.5779 28.6896 46.2999 22.145 46.2999 14.5C46.2999 6.85498 43.5779 0.310402 38.1337 -5.13376C32.6895 -10.5779 26.145 -13.3 18.5 -13.3C10.855 -13.3 4.31039 -10.5779 -1.13377 -5.13376C-6.57793 0.310402 -9.30002 6.85498 -9.30002 14.5C-9.30002 22.145 -6.57793 28.6896 -1.13377 34.1337C4.31039 39.5779 10.855 42.3 18.5 42.3ZM18.5 28.4C14.6775 28.4 11.4063 27.0401 8.68657 24.3203C5.9668 21.6006 4.6046 18.3271 4.59997 14.5C4.59534 10.6728 5.95754 7.40172 8.68657 4.68658C11.4156 1.97145 14.6867 0.609249 18.5 0.599983C22.3132 0.590717 25.5866 1.95292 28.3203 4.68658C31.054 7.42025 32.4139 10.6914 32.4 14.5C32.3861 18.3086 31.0262 21.582 28.3203 24.3203C25.6144 27.0586 22.341 28.4185 18.5 28.4Z" fill="white"/>
</svg>
